<svg width="51" height="51" viewBox="0 0 51 51" fill="none" xmlns="http://www.w3.org/2000/svg">
<path d="M15.431 44.4974C16.452 45.5231 18.0981 45.5231 19.1191 44.4974L36.4345 27.1037C36.6277 26.91 36.7809 26.68 36.8855 26.4268C36.9901 26.1736 37.0439 25.9022 37.0439 25.628C37.0439 25.3539 36.9901 25.0824 36.8855 24.8292C36.7809 24.576 36.6277 24.346 36.4345 24.1524L19.1191 6.7586C18.0981 5.73297 16.452 5.73297 15.431 6.7586C14.41 7.78423 14.41 9.43779 15.431 10.4634L30.5169 25.6385L15.4101 40.8136C14.41 41.8183 14.41 43.4928 15.431 44.4974Z" fill="black"/>
</svg>
